<?xml version="1.0" standalone="no"?>
<!DOCTYPE svg PUBLIC "-//W3C//DTD SVG 20010904//EN"
 "http://www.w3.org/TR/2001/REC-SVG-20010904/DTD/svg10.dtd">
<svg version="1.0" xmlns="http://www.w3.org/2000/svg"
 width="260.000000pt" height="260.000000pt" viewBox="0 0 260.000000 260.000000"
 preserveAspectRatio="xMidYMid meet">
<metadata>
Created by potrace 1.11, written by Peter Selinger 2001-2013
</metadata>
<g transform="translate(0.000000,260.000000) scale(0.100000,-0.100000)"
fill="#000000" stroke="none">
<path d="M0 1300 l0 -1300 1300 0 1300 0 0 1300 0 1300 -1300 0 -1300 0 0
-1300z m1398 481 c-1 -5 -127 -244 -278 -530 l-274 -521 -33 0 -34 0 17 33
c41 80 499 946 521 985 20 35 29 42 54 42 17 0 29 -4 27 -9z m873 -43 l89 -22
30 23 c58 42 59 30 20 -149 -28 -131 -39 -165 -53 -168 -14 -3 -17 5 -17 48 0
169 -94 254 -259 235 -175 -20 -326 -170 -403 -400 -18 -57 -23 -92 -23 -185
0 -106 2 -120 28 -172 52 -105 135 -152 272 -152 80 0 98 3 156 30 39 19 86
52 117 83 70 70 100 66 43 -6 -90 -112 -192 -163 -342 -171 -80 -4 -109 -1
-166 16 -262 80 -348 359 -201 655 79 157 257 301 425 341 86 21 184 19 284
-6z m-1477 -12 c-3 -7 -22 -16 -43 -20 -41 -6 -81 -43 -99 -91 -29 -76 -222
-751 -222 -775 0 -35 14 -46 72 -54 35 -5 46 -11 41 -22 -4 -11 -40 -14 -209
-14 -169 0 -202 2 -198 14 3 7 24 17 47 20 57 9 86 30 107 79 23 51 218 704
226 757 9 55 -7 77 -61 86 -28 4 -45 11 -45 20 0 11 35 14 195 14 161 0 193
-2 189 -14z"/>
</g>
</svg>
